<svg xmlns="http://www.w3.org/2000/svg" xmlns:inkscape="http://www.inkscape.org/namespaces/inkscape" xmlns:sodipodi="http://sodipodi.sourceforge.net/DTD/sodipodi-0.dtd" xmlns:svg="http://www.w3.org/2000/svg" id="svg2" height="24" style="" viewBox="0 0 24 24" width="24" sodipodi:docname="fingerprint.svg" inkscape:version="1.3.2 (091e20ef0f, 2023-11-25)">
  <defs id="defs3051">
    <style type="text/css" id="current-color-scheme">.ColorScheme-Text { color: #fcfcfc; } </style>
  </defs>
  <g transform="translate(1,1)">
    <path id="path1" d="m 10.964844 2.9980469 c -1.5845236 -.0072353 -2.9422744 .2857394 -4.1777346 .9042969 c -.4112899 .2059109 -.4758434 .2776955 -.4492188 .5 c .0543735 .4537067 .2885593 .498883 .9824219 .1875 c 1.2899294 -.578856 1.9178453 -.7033109 3.5449215 -.7050782 c 1.867366 -.00153 2.554482 .1581718 4.085938 .9511719 c .263122 .1360571 1.097292 .7789323 1.408203 .4335937 c .307924 -.3078945 .144513 -.5609142 -.648437 -1.0117187 c -1.563801 -.8890431 -2.930512 -1.2511653 -4.746094 -1.2597656 z m -.046875 1.8320312 c -2.0906577 -.0015904 -4.1807664 .8256559 -5.7128909 2.4804688 c -.5926987 .640169 -1.2832031 1.689795 -1.2832031 1.9492187 c 0 .3024858 .1234451 .46875 .3496094 .46875 c .1772788 0 .3578489 -.190821 .7871094 -.8359375 c .9600458 -1.4427908 2.2051389 -2.4006204 3.8085937 -2.9296875 c 1.2435415 -.4058614 2.7001995 -.3588754 4.0996095 0 c 1.806888 .5938948 3.355915 1.916279 4.205078 3.5898438 c .184782 .3641515 .295572 .4765626 .476563 .4765626 c .311704 0 .495303 -.23344 .410156 -.5214845 c -.137293 -.4645988 -.869271 -1.5904919 -1.423828 -2.1894531 c -1.534258 -1.657146 -3.626141 -2.4866996 -5.716797 -2.4882813 z m .097656 1.8222657 c -.445604 -.00775 -.897825 .0344876 -1.3496094 .1289062 c -2.146845 .4487425 -3.9412221 2.1872289 -4.515625 4.375 c -.3048255 1.160984 -.1650506 3.057421 .3378906 4.574219 c .1503076 .453288 .223992 .547173 .4394532 .572265 c .4953707 .05757 .5425194 -.177958 .2460937 -1.203125 c -.8481973 -2.933423 -.117367 -5.4282751 1.9863281 -6.7890621 c 2.0798818 -1.3453843 4.9406298 -.948559 6.5683598 .9121093 c 1.020005 1.1659848 1.579872 3.1393058 1.134765 3.9999998 c -.294034 .568598 -1.009591 .909304 -1.597656 .761719 c -.429745 -.107851 -.940652 -.635832 -1.005859 -1.041016 c -.230123 -1.429844 -.554761 -1.988299 -1.376954 -2.371093 c -.701353 -.32655 -1.284385 -.317345 -1.9726558 .03125 c -.6413124 .324823 -1.1329202 .979024 -1.2324218 1.642578 c -.035906 .239115 -.0206307 .757671 .0351562 1.15039 c .3469606 2.446271 2.0965544 4.381247 4.5000004 4.976563 c .302262 .07484 .797346 .127554 1.099609 .117187 l .548828 -.017578 c .310632 -.157676 .327632 -.52228 0 -.701172 l -.777344 -.117187 c -.978866 -.149158 -1.383803 -.279437 -2.05664 -.658203 c -1.46318 -.823674 -2.511719 -2.609239 -2.511719 -4.277344 c 0 -.735113 .2787884 -1.164663 .927734 -1.433594 c .468905 -.194333 .474455 -.194333 .94336 0 c .593428 .24593 .879612 .658428 .953125 1.371094 c .134996 1.307917 1.042601 2.167969 2.287109 2.167969 c .998776 0 1.840549 -.647171 2.138672 -1.646485 c .291784 -.977992 -.101062 -2.621655 -.923828 -3.8710934 c -1.090395 -1.6558477 -2.895221 -2.6207549 -4.826172 -2.6542968 z m -.064453 1.8945312 c -.621891 .0078591 -1.2610341 .1220648 -1.7851564 .3261719 c -.8081421 .3957774 -1.5782434 1.1864461 -1.9765625 2.0273441 c -.3030937 .639832 -.3205007 .739905 -.3203125 1.826171 c .0002242 1.336431 .1608293 2.045939 .7363282 3.246094 c .4958946 1.034132 1.1835844 1.936783 1.9472656 2.554688 c .6619406 .535587 .7322516 .560867 1.0078126 .359375 c .282107 -.20626 .124685 -.56108 -.445313 -.998047 c -.6180212 -.473788 -1.2857839 -1.329765 -1.7363278 -2.228516 c -.7400486 -1.476217 -.9257648 -3.301198 -.4433593 -4.345703 c .3501094 -.758061 .8837753 -1.3239492 1.5644531 -1.658203 c .817809 -.4015966 2.012269 -.4015966 2.830078 0 c .976109 .479324 1.599333 1.353519 1.820313 2.550781 c .1319 .714664 .332068 .952234 .636718 .75586 c .141164 -.09099 .171337 -.242829 .158203 -.78711 c -.031914 -1.323089 -.957834 -2.6511972 -2.3125 -3.316406 c -.454743 -.2212609 -1.059749 -.3203662 -1.68164 -.3125 z m -.003906 3.615234 c -.072134 -.001465 -.153033 .023509 -.244141 .072266 c -.191281 .102402 -.208829 .174075 -.162109 .726563 c .147755 1.748088 1.464452 3.25256 3.171875 3.625 c .757301 .165124 .960616 .162423 1.142578 -.019532 c .363429 -.363416 .119519 -.652706 -.634766 -.755859 c -1.541693 -.21083 -2.687806 -1.387877 -2.871094 -2.947266 c -.054671 -.465046 -.185943 -.696776 -.402343 -.701172 z" class="ColorScheme-Text" fill="currentColor"/>
  </g>
</svg>
