<svg xmlns="http://www.w3.org/2000/svg" viewBox="0 0 16 16">
  <defs id="defs3051">
    <style type="text/css" id="current-color-scheme">
      .ColorScheme-Text {
        color:#232629;
      }
      </style>
  </defs>
    <path 
        style="fill:currentColor;fill-opacity:1;stroke:none" 
          d="M 8,2 C 8,2 6.5,3.9931393 2,4.4931642 2,4.4931642 2,11.493575 8,14 14,11.493575 14,4.4931642 14,4.4931642 9.5,3.9931393 8,2 8,2 Z m 0,1.0327148 c 1.1902463,1.0085887 2.90787,1.681332 5.134277,2.02002 -0.120944,1.0839 -0.236906,1.899588 -0.517089,2.687988 C 12.02837,9.3975478 11.341831,10.405496 10.726074,11.130371 9.7719035,12.253605 8.905394,12.708268 8,13.160644 7.094606,12.708268 6.2280957,12.253605 5.2739255,11.130371 4.6581687,10.405496 3.97163,9.3975478 3.3828125,7.7407227 3.102629,6.9523228 2.986667,6.1366347 2.8657228,5.0527347 5.09213,4.7140467 6.8097538,4.0413035 8,3.0327148 Z M 8,3.932129 C 6.6923817,4.839833 5.2233868,5.299538 3.7490232,5.6123045 4.4471577,9.5737835 5.9510862,11.267823 8,12.328613 L 8,3.932129 Z"
          class="ColorScheme-Text"/>
</svg>
