<svg xmlns="http://www.w3.org/2000/svg" viewBox="0 0 16 16">
  <defs id="defs3051">
    <style type="text/css" id="current-color-scheme">
      .ColorScheme-Text {
        color:#232629;
      }
      </style>
  </defs>
    <path 
        style="fill:currentColor;fill-opacity:1;stroke:none" 
          d="M 8,2 C 8,2 6.5,3.9931391 2,4.4931641 2,4.4931641 2,11.493575 8,14 14,11.493575 14,4.4931641 14,4.4931641 9.5,3.9931391 8,2 8,2 Z m 0,1.0327148 c 1.190246,1.008525 2.90787,1.6813196 5.134277,2.0200196 -0.120944,1.0839 -0.236906,1.8995883 -0.517089,2.6879883 C 12.02837,9.3975477 11.341831,10.405496 10.726074,11.130371 9.771904,12.253646 8.905394,12.708244 8,13.160644 7.094606,12.708244 6.228096,12.253646 5.2739258,11.130371 4.658169,10.405496 3.97163,9.3975478 3.3828125,7.7407227 3.102629,6.9523227 2.9866669,6.1366344 2.8657227,5.0527344 5.0921299,4.7140344 6.8097538,4.0412398 8,3.0327148 Z"
          class="ColorScheme-Text"/>
</svg>
