<?xml version="1.0" encoding="UTF-8"?>
<svg xmlns="http://www.w3.org/2000/svg" viewBox="0 0 64 64">
  <defs id="defs3051">
    <style type="text/css" id="current-color-scheme">.ColorScheme-Accent { color: #3daee9; } .ColorScheme-Text { color: #fcfcfc; } </style>
  </defs>
  <path style="fill:#a7afb4" d="m 24,6 c -1,0 -2,1 -2,2 v 3 H 10 C 9,11 8,12 8,14.1 V 15 h 4 v 41.6 c 0,0.8 0.6,1.4 1.5,1.4 h 37 c 0.8,0 1.481226,-0.60022 1.5,-1.4 V 15 h 4 v -1 c 0,-2 -1,-3 -2,-3 H 42 V 8 C 42,7 41,6 40,6 Z m 1,3 h 14 v 2 H 25 Z"/>
  <path style="fill-opacity:0.33" d="M 18.5,19 C 17.6,19 17,19.6 17,20.4 v 33.2 c 0,0.8 0.6,1.4 1.5,1.4 0.9,0 1.5,-0.6 1.5,-1.4 V 20.4 C 20,19.6 19.331,19 18.5,19 Z m 9,0 C 26.6,19 26,19.6 26,20.4 v 33.2 c 0,0.8 0.6,1.4 1.5,1.4 0.9,0 1.5,-0.6 1.5,-1.4 V 20.4 C 29,19.6 28.331,19 27.5,19 Z m 9,0 C 35.6,19 35,19.6 35,20.4 v 33.2 c 0,0.8 0.6,1.4 1.5,1.4 0.9,0 1.5,-0.6 1.5,-1.4 V 20.4 C 38,19.6 37.331,19 36.5,19 Z m 9,0 C 44.6,19 44,19.6 44,20.4 v 33.2 c 0,0.8 0.6,1.4 1.5,1.4 0.9,0 1.5,-0.6 1.5,-1.4 V 20.4 C 47,19.6 46.331,19 45.5,19 Z"/>
  <path style="fill-opacity:0.33" d="m 12,55.5 v 1 c 0,0.8 0.6,1.5 1.5,1.5 h 37 c 0.8,0 1.5,-0.6 1.5,-1.5 v -1 c 0,0.8 -0.6,1.5 -1.5,1.5 h -37 C 12.7,57 12,56.4 12,55.5 Z"/>
  <path style="fill-opacity:0.33" d="M 24.75,8 C 24.05,8 24.015493,8.3 24,8.7 V 11 h 1 V 9 h 14 v 2 h 1 V 8.8 C 40,8.4 39.7,8 39.25,8 Z M 8,14 v 1 h 48 v -1 z"/>
  <path style="fill:#ffffff;fill-opacity:0.2" d="m 12,15 v 0.5 L 52,16 v -1 z"/>
</svg>
