<?xml version="1.0" encoding="UTF-8" standalone="no"?>
<svg
   height="400"
   viewBox="0 -960 16000 16000"
   width="400"
   fill="#e8eaed"
   version="1.1"
   id="svg58"
   sodipodi:docname="deskflow-icon.svg"
   inkscape:version="1.2.2 (b0a8486541, 2022-12-01)"
   inkscape:export-filename="deskflow.png"
   inkscape:export-xdpi="4000"
   inkscape:export-ydpi="4000"
   xmlns:inkscape="http://www.inkscape.org/namespaces/inkscape"
   xmlns:sodipodi="http://sodipodi.sourceforge.net/DTD/sodipodi-0.dtd"
   xmlns="http://www.w3.org/2000/svg"
   xmlns:svg="http://www.w3.org/2000/svg">
  <defs
     id="defs62" />
  <sodipodi:namedview
     id="namedview60"
     pagecolor="#ffffff"
     bordercolor="#000000"
     borderopacity="0.25"
     inkscape:showpageshadow="2"
     inkscape:pageopacity="0.0"
     inkscape:pagecheckerboard="0"
     inkscape:deskcolor="#d1d1d1"
     showgrid="false"
     inkscape:zoom="1.4142136"
     inkscape:cx="140.71425"
     inkscape:cy="220.61732"
     inkscape:window-width="1920"
     inkscape:window-height="1011"
     inkscape:window-x="0"
     inkscape:window-y="0"
     inkscape:window-maximized="1"
     inkscape:current-layer="svg58" />
  <g
     id="g312"
     transform="matrix(1.0746139,0,0,0.99657266,-596.91134,-9.7327822)"
     inkscape:label="deskflow">
    <path
       style="fill:#3366cc;fill-opacity:1;stroke-width:22.0314"
       d="m 10822.775,14277.69 c -725.441,-75.758 -1360.4107,-335.408 -2953.399,-1207.698 -1184.4329,-648.572 -1657.2077,-869.797 -2159.0787,-1010.295 -195.3193,-54.679 -239.4632,-58.606 -660.9423,-58.798 -412.4131,-0.187 -465.9968,4.307 -616.8795,51.442 -617.2354,192.932 -1111.1495,547.318 -1705.8871,1223.984 -372.355,423.649 -452.1256,475.865 -726.9905,475.865 -232.6962,0 -389.3132,-114.626 -538.1425,-393.859 -97.6499,-183.208 -136.2498,-354.745 -136.943,-608.569 -0.9871,-361.332 90.7554,-581.303 405.6158,-972.546 454.315,-564.53 1071.3806,-1096.759 1627.0063,-1403.32 574.0763,-316.742 1301.046,-474.5294 1911.1995,-414.8217 877.7976,85.8977 1479.4495,322.5197 3173.8588,1248.2357 1360.4629,743.271 1887.4222,972.691 2357.3612,1026.316 962.745,109.86 1619.788,-234.099 2426.041,-1270.024 265.988,-341.759 440.291,-523.347 538.01,-560.5 85.218,-32.404 353.332,-26.223 440.38,10.151 114.885,48.003 290.277,236.695 363.058,390.589 90.975,192.367 115.643,338.837 106.757,633.906 -7.394,245.557 -11.399,264.246 -91.148,425.591 -151.774,307.052 -552.228,834.715 -929.562,1224.851 -709.182,733.24 -1400.349,1092.826 -2291.735,1192.297 -223.305,24.917 -275.771,24.644 -538.58,-2.799 z"
       id="path3393"
       inkscape:label="wave 3" />
    <path
       style="fill:#33b2cc;fill-opacity:1;stroke-width:26.9658"
       d="M 10691.975,9232.2954 C 10023.904,9138.2267 9291.0238,8829.9773 7943.0848,8076.1112 6609.9067,7330.5005 6198.1922,7138.9358 5652.3423,7010.2615 c -243.5381,-57.4099 -347.9813,-65.1846 -698.6764,-52.0098 -350.6523,13.1729 -447.6471,28.2841 -648.4026,101.0161 -564.5998,204.5483 -1088.9878,604.082 -1609.3308,1226.1566 -346.6786,414.4566 -584.4059,525.2808 -885.347,412.7324 -192.604,-72.0329 -433.8052,-423.3421 -490.3134,-714.1418 -38.1396,-196.2741 -16.3788,-517.0343 47.5576,-701.0115 146.4281,-421.345 909.508,-1246.3029 1581.9071,-1710.1823 963.612,-664.7841 1984.7795,-839.4204 3092.0317,-528.7881 635.0677,178.1644 1074.5795,381.1158 2396.9103,1106.8098 963.7205,528.8895 1563.7032,820.226 1945.1742,944.5303 309.63,100.896 861.648,137.9622 1159.223,77.8413 588.657,-118.9268 1115.294,-522.1996 1702.251,-1303.4965 310.762,-413.655 424.656,-516.4984 632.476,-571.1126 312.793,-82.2063 660.875,196.9193 776.17,622.3954 40.112,148.0341 49.106,237.616 42.717,425.5773 -11.234,330.4785 -72.528,487.867 -338.44,868.9363 -740.488,1061.1785 -1618.249,1744.1642 -2516.836,1958.3492 -314.615,74.9868 -841.585,101.7751 -1149.443,58.4277 z"
       id="path1767"
       inkscape:label="wave 2" />
    <path
       style="fill:#33cc99;fill-opacity:1;stroke-width:26.9658"
       d="M 10576.744,4172.4544 C 9875.4106,4054.5311 9254.561,3795.6536 8047.1318,3117.6748 6298.7948,2135.9727 5901.1838,1973.7358 5169.1286,1943.3652 c -309.4699,-12.839 -457.2545,-4.6405 -640.2217,35.5164 -623.6823,136.8833 -1265.1525,579.7083 -1843.7689,1272.8049 -261.4251,313.1489 -336.0185,374.0949 -523.4853,427.7108 -333.9533,95.5119 -631.6749,-125.6455 -797.5,-592.4091 -65.1417,-183.3604 -70.0111,-219.3096 -60.5107,-446.7291 15.0698,-360.7299 102.7469,-573.6147 372.566,-904.6099 1271.6034,-1559.91423 2646.1446,-2145.742 4181.6081,-1782.19574 680.9761,161.23227 1320.8731,447.96799 2599.9925,1165.04794 1490.1626,835.3921 2027.4634,1046.8526 2657.2604,1045.7931 824.736,-1.3855 1475.964,-418.6346 2184.35,-1399.53052 316.552,-438.32663 413.046,-512.11801 670.274,-512.57528 154.752,-0.27638 193.077,12.59982 339.34,113.99621 259.074,179.60222 391.048,479.99014 391.048,890.06929 0,346.9967 -62.66,514.2152 -341.533,911.4521 -1108.285,1578.6765 -2362.287,2243.4278 -3781.804,2004.7481 z"
       id="path970"
       inkscape:label="wave 1" />
  </g>
</svg>
