/* XPM */
static char *qsynergy[] = {
/* columns rows colors chars-per-pixel */
"32 32 6 1",
"  c #010000",
". c #336666",
"X c #3399CC",
"o c #6699FF",
"O c #99CC33",
"+ c None",
/* pixels */
"++++++++++++++++++++++++++++++++",
"++++++++++++oooo....++++++++++++",
"+++++++++ooooooo.......+++++++++",
"++++++++oooooooo........++++++++",
"++++++oooooooooo..........++++++",
"+++++ooooooooooo...........+++++",
"++++oooooooooooo............++++",
"++++oooooooooooo............++++",
"+++oooooooooo++++++..........+++",
"++ooooooooo++++++++++.........++",
"++oooooooo++++++++++++........++",
"++ooooooo++++++++++++++.......++",
"+oooooooo++++++++++++++........+",
"+ooooooo++++++++++++++++.......+",
"+ooooooo++++++++++++++++.......+",
"+ooooooo++++++++++++++++.......+",
"+OOOOOOO++++++++++++++++XXXXXXX+",
"+OOOOOOO++++++++++++++++XXXXXXX+",
"+OOOOOOO++++++++++++++++XXXXXXX+",
"+OOOOOOOO++++++++++++++XXXXXXXX+",
"++OOOOOOO++++++++++++++XXXXXXX++",
"++OOOOOOOO++++++++++++XXXXXXXX++",
"++OOOOOOOOO++++++++++XXXXXXXXX++",
"+++OOOOOOOOOO++++++XXXXXXXXXX+++",
"++++OOOOOOOOOOOOXXXXXXXXXXXX++++",
"++++OOOOOOOOOOOOXXXXXXXXXXXX++++",
"+++++OOOOOOOOOOOXXXXXXXXXXX+++++",
"++++++OOOOOOOOOOXXXXXXXXXX++++++",
"++++++++OOOOOOOOXXXXXXXX++++++++",
"+++++++++OOOOOOOXXXXXXX+++++++++",
"++++++++++++OOOOXXXX++++++++++++",
"++++++++++++++++++++++++++++++++"
};
