<svg xmlns="http://www.w3.org/2000/svg" viewBox="0 0 16 16">
  <defs id="defs3051">
    <style type="text/css" id="current-color-scheme">
      .ColorScheme-Text {
        color:#232629;
      }
      .ColorScheme-NegativeText {
        color:#da4453;
      }
      </style>
  </defs>
 <path style="fill:currentColor;fill-opacity:1;stroke:none" 
     d="M 13.300781 2 L 10.650391 4.6503906 L 9.5859375 3.5859375 L 6.5859375 6.5859375 L 9.4140625 9.4140625 L 12.414062 6.4140625 L 11.349609 5.3496094 L 14 2.6992188 L 13.300781 2 z M 5.5859375 7.5859375 L 3.5859375 9.5859375 L 4.6503906 10.650391 L 2 13.300781 L 2.6992188 14 L 5.3496094 11.349609 L 6.4140625 12.414062 L 8.4140625 10.414062 L 5.5859375 7.5859375 z "
     class="ColorScheme-Text"
     />
   <path
     style="fill:currentColor;fill-opacity:1;stroke:none" 
     d="M 9,9.83 10.667,11.497 9,13.164 9.833,13.997 11.5,12.33 13.167,13.997 14,13.164 12.333,11.497 14,9.83 13.167,8.997 11.5,10.664 9.833,8.997 Z" 
     class="ColorScheme-NegativeText"
     />
</svg>
