<svg xmlns="http://www.w3.org/2000/svg" viewBox="0 0 22 22">
  <defs id="defs3051">
    <style type="text/css" id="current-color-scheme">
      .ColorScheme-Text {
        color:#232629;
      }
      </style>
  </defs>
 <path 
     style="fill:currentColor;fill-opacity:1;stroke:none" 
     d="M 17.564453 2.7558594 L 14.298828 8.5742188 L 11.882812 7.1386719 L 10.861328 8.8574219 L 16.511719 12.216797 L 17.533203 10.496094 L 15.158203 9.0839844 L 18.435547 3.2441406 L 17.564453 2.7558594 z M 7 6 A 1 1 0 0 0 6 7 A 1 1 0 0 0 7 8 A 1 1 0 0 0 8 7 A 1 1 0 0 0 7 6 z M 3.5 7 A 0.5 0.5 0 0 0 3 7.5 A 0.5 0.5 0 0 0 3.5 8 A 0.5 0.5 0 0 0 4 7.5 A 0.5 0.5 0 0 0 3.5 7 z M 5 9 A 1 1 0 0 0 4 10 A 1 1 0 0 0 5 11 A 1 1 0 0 0 6 10 A 1 1 0 0 0 5 9 z M 10 10 C 8.8815125 11.564268 6.8355055 12.810894 3 13 L 3 14 C 5.1137135 17.371692 8 19 12 19 L 13 19 C 14.311249 17.412805 15.357513 15.967619 16 14 L 16 13 L 11 10 L 10 10 z M 10.529297 11.101562 L 14.857422 13.699219 C 14.284594 15.24586 13.385404 16.602833 12.273438 17.96875 C 8.9999995 18 6.052768 16.540538 4.3261719 13.830078 C 7.4443879 13.51946 9.3457156 12.545306 10.529297 11.101562 z "
	 class="ColorScheme-Text"
     />
</svg>
