<svg version="1.1" viewBox="0 0 22 22" xmlns="http://www.w3.org/2000/svg">
<defs>
<style type="text/css" id="current-color-scheme"> .ColorScheme-Text { color:#232629; } </style>
</defs>
<path d="m11 3a8 8 0 0 0-7.9277344 7h1.0058594a7 7 0 0 1 6.921875-6 7 7 0 0 1 6.320312 4h-3.320312v1h5v-1-4h-1v3.1679688a8 8 0 0 0-7-4.1679688zm6.921875 9a7 7 0 0 1-6.921875 6 7 7 0 0 1-6.3105469-4h3.3105469v-1h-5v1 4h1v-3.195312a8 8 0 0 0 7 4.195312 8 8 0 0 0 7.927734-7h-1.005859z" class="ColorScheme-Text" fill="currentColor"/>
</svg>
