<?xml version="1.0" encoding="UTF-8" standalone="no"?>
<svg
   height="400"
   viewBox="0 -960 16000 16000"
   width="400"
   fill="#e8eaed"
   version="1.1"
   id="svg58"
   xmlns="http://www.w3.org/2000/svg"
   xmlns:svg="http://www.w3.org/2000/svg">
  <defs
     id="defs62" />
  <g
     id="g312"
     transform="matrix(0.95521236,0,0,0.88584237,358.301,773.57086)">
    <path
       style="fill:#1a1a1a;fill-opacity:1;stroke-width:22.0314"
       d="m 10822.775,14277.69 c -1195.5832,-143.508 -2220.2063,-841.148 -3268.3667,-1379.127 -718.8533,-355.301 -1431.1297,-838.976 -2251.4363,-896.085 -491.0057,-34.634 -993.9142,16.701 -1419.8658,282.946 -632.9097,323.689 -1041.4867,924.538 -1556.5718,1387.702 -543.283,324.938 -1024.416,-324.503 -999.9439,-831.854 -66.7515,-706.46 526.7775,-1215.106 971.4799,-1675.328 796.7042,-788.985 1908.9735,-1339.2985 3051.7899,-1198.3588 1348.2477,151.6528 2490.0786,954.1998 3671.9639,1551.7868 812.8473,430.368 1732.2728,937.309 2680.6698,656.999 865.182,-240.211 1345.317,-1049.536 1918.072,-1669.709 419.319,-369.53 999.56,99.027 1037.303,575.62 144.849,591.439 -228.81,1099.793 -584.858,1527.872 -674.991,878.758 -1646.404,1612.499 -2788.132,1678.492 -153.996,19.794 -308.698,6.257 -462.104,-10.956 z"
       id="path3393" />
    <path
       style="fill:#1a1a1a;fill-opacity:1;stroke-width:26.9658"
       d="M 10691.975,9232.2954 C 9345.1884,8998.8534 8209.7623,8175.6727 7013.3992,7567.553 6317.9006,7189.0731 5542.8247,6853.4818 4732.6528,6969.3648 3791.0852,7073.1473 3096.3863,7808.0894 2511.2819,8487.0616 2153.4997,8962.5979 1492.1857,8662.9151 1369.9995,8151.7319 1161.0166,7603.1278 1417.243,7018.9363 1804.1792,6620.924 2646.9373,5624.9864 3867.0135,4790.8306 5227.0245,4902.123 c 1538.2424,122.1926 2802.7979,1096.8978 4150.0464,1747.2218 689.4831,373.3537 1480.8271,695.5213 2275.6811,498.2159 843.443,-225.4675 1355.155,-986.6873 1874.463,-1625.928 303.839,-429.2412 935.004,-202.6984 1073.134,247.0946 229.503,525.6439 50.159,1127.049 -311.918,1545.1618 -731.881,1031.1947 -1847.889,1971.3437 -3180.435,1938.7364 -138.853,1.6775 -278.273,-1.5834 -416.021,-20.3301 z"
       id="path1767" />
    <path
       style="fill:#1a1a1a;fill-opacity:1;stroke-width:26.9658"
       d="M 10576.744,4172.4544 C 8874.8637,3865.0547 7544.5841,2635.7395 5940.4635,2069.4233 5180.2383,1837.8115 4305.6379,1885.6382 3648.4341,2367.3105 c -522.046,315.7633 -870.3773,828.5536 -1307.695,1235.7633 -408.0241,287.6051 -882.8065,-100.3925 -976.5864,-516.0856 -207.011,-566.4578 84.2445,-1166.9024 491.559,-1564.2835 824.1797,-978.84256 2034.8379,-1776.07292 3363.7164,-1666.23087 1553.6459,128.553637 2838.511,1104.93638 4193.6746,1778.01277 748.5153,409.2855 1666.3233,736.8711 2500.3373,374.9559 742.862,-301.9425 1184.93,-1003.6082 1669.344,-1599.36398 390.513,-404.4477409 1011.637,22.50986 1078.781,494.20116 143.129,510.48212 -76.578,1022.79062 -407.346,1408.75032 -715.856,1002.3301 -1795.1,1907.7734 -3088.381,1906.4911 -197.264,2.2737 -394.6,-14.3348 -589.094,-47.0667 z"
       id="path970" />
  </g>
</svg>
