<?xml version="1.0" encoding="UTF-8" standalone="no"?>
<svg
   height="400"
   viewBox="0 -960 16000 16000"
   width="400"
   fill="#e8eaed"
   version="1.1"
   id="svg58"
   xmlns="http://www.w3.org/2000/svg"
   xmlns:svg="http://www.w3.org/2000/svg">
  <defs
     id="defs62" />
  <g
     id="g312"
     transform="matrix(0.95521236,0,0,0.88584237,358.301,773.57086)">
    <path
       style="fill:#f2f2f2;fill-opacity:1;stroke-width:22.0314"
       d="m 10822.775,14277.69 c -1480.6355,-205.266 -2703.2156,-1149.093 -4024.7185,-1775.333 -745.9215,-412.95 -1640.7516,-671.66 -2479.9222,-411.91 -844.9777,264.031 -1378.4045,1001.612 -1991.5999,1582.679 -747.0662,380.92 -732.8666,-1875.959 -957.1362,-1286.712 396.2288,-871.302 1186.3232,-1519.256 1987.7363,-2012.518 1172.4366,-680.7295 2625.6591,-459.9056 3774.9177,151.009 1203.0592,540.157 2286.8972,1374.106 3578.5308,1696.524 888.521,187.313 1759.981,-291.864 2291.813,-984.522 293.133,-563.979 1138.577,-1336.7036 1564.647,-433.065 320.451,648.351 -932.467,2288.278 -494.032,1806.312 -768.024,1006.215 -1931.603,1805.177 -3250.236,1667.536 z"
       id="path3393" />
    <path
       style="fill:#f2f2f2;fill-opacity:1;stroke-width:26.9658"
       d="M 10691.975,9232.2954 C 8846.2487,8912.0018 7433.3401,7506.5916 5652.3423,7010.2615 4761.8774,6790.4246 3822.1342,7124.1431 3186.0428,7766.5861 2779.8147,8179.8677 2076.0345,9244.1299 1514.3929,8423.1235 1079.2106,7830.3042 2354.0198,6103.9484 1854.8774,6562.2615 2749.3313,5511.0149 4101.33,4683.576 5528.9402,4933.985 c 1825.4065,308.1723 3248.3604,1635.6508 4981.4158,2196.167 786.252,212.7419 1654.268,-19.2507 2198.637,-635.8586 489.708,-366.0972 693.581,-1248.5159 1405.833,-1192.9521 749.104,302.2549 726.809,1381.0589 243.424,1914.1731 -761.756,1116.6719 -1965.665,2136.6365 -3401.044,2036.4798 l -140.36,-6.6924 -124.875,-13.0105 z"
       id="path1767" />
    <path
       style="fill:#f2f2f2;fill-opacity:1;stroke-width:26.9658"
       d="M 10576.744,4172.4544 C 8781.32,3857.6985 7413.9341,2483.8453 5681.7925,2001.6118 4813.0936,1790.1465 3885.6762,2059.0545 3243.5441,2676.9291 2755.2378,3026.8587 2296.4145,4124.678 1601.3049,3504.7347 718.55095,2717.1148 2282.4679,796.203 1795.7242,1592.2603 2696.3129,485.67774 4095.5242,-387.1285 5571.7883,-103.57995 7431.0096,214.26172 8850.9468,1625.9548 10643.731,2118.8133 c 1007.057,248.4056 1967.172,-377.7119 2523.479,-1176.70049 225.605,-637.03713 1128.579,-1020.154865 1434.5,-217.3221 318.499,687.05509 -995.822,2368.70809 -558.726,1862.82939 -805.909,1049.9999 -2097.781,1861.9671 -3466.24,1584.8343 z"
       id="path970" />
  </g>
</svg>
