<?xml version="1.0" encoding="UTF-8"?>
<svg xmlns="http://www.w3.org/2000/svg" viewBox="0 0 16 16">
  <defs id="defs3051">
    <style type="text/css" id="current-color-scheme">.ColorScheme-Text { color: #fcfcfc; } </style>
  </defs>
    <path style="fill:currentColor;fill-opacity:1;stroke:none" d="M 8,2 C 8,2 6.5,3.9931391 2,4.4931641 2,4.4931641 2,11.493575 8,14 14,11.493575 14,4.4931641 14,4.4931641 9.5,3.9931391 8,2 8,2 Z m 0,1.0327148 c 1.1902463,1.008525 2.90787,1.6813196 5.134277,2.0200196 C 13.013333,6.1366343 12.897371,6.9523225 12.617188,7.7407227 12.02837,9.3975477 11.341831,10.405496 10.726074,11.130371 9.7719035,12.253646 8.905394,12.708244 8,13.160644 7.094606,12.708244 6.2280961,12.253646 5.2739258,11.130371 4.658169,10.405496 3.97163,9.3975477 3.3828125,7.7407227 3.102629,6.9523225 2.9866669,6.1366343 2.8657227,5.0527344 5.0921299,4.7140344 6.8097538,4.0412398 8,3.0327148 Z M 8,3.9321289 C 6.6923817,4.8398539 5.2233869,5.2995548 3.7490234,5.6123046 4.4471579,9.5738045 5.9510862,11.267813 8,12.328613 10.048914,11.267813 11.552843,9.5738045 12.250977,5.6123046 10.776613,5.2995547 9.3076183,4.8398539 8,3.9321289 Z" class="ColorScheme-Text"/>
</svg>
